PathFileType	4	(X/Y/Z)	Patient4_TMGait_0pt5_01_left_19.trc.trc
DataRate	CameraRate	NumFrames	NumMarkers	Units	OrigDataRate	OrigDataStartFrame	OrigNumFrames
77.348066298342	77.348066298342	4	33	mm	77.348066298342	89	       141
Frame#	Time	L.ASIS			Sacral			L.Shoulder			Chest			R.Shoulder			Neck			R.ASIS			R.Thigh.Superior			R.Thigh.Lateral			R.Thigh.Inferior			R.Patella			L.Thigh.Superior			L.Thigh.Lateral			L.Thigh.Inferior			L.Patella			L.Shank.Superior			L.Shank.Lateral			L.Shank.Inferior			R.Shank.Superior			R.Shank.Lateral			R.Shank.Inferior			R.Heel			R.Midfoot.Superior			R.Midfoot.Lateral			R.Toe			L.Heel			L.Midfoot.Lateral			L.Midfoot.Superior			L.Toe			L.Elbow			L.Wrist			R.Elbow			R.Wrist			
		X1	Y1	Z1	X2	Y2	Z2	X3	Y3	Z3	X4	Y4	Z4	X5	Y5	Z5	X6	Y6	Z6	X7	Y7	Z7	X8	Y8	Z8	X9	Y9	Z9	X10	Y10	Z10	X11	Y11	Z11	X12	Y12	Z12	X13	Y13	Z13	X14	Y14	Z14	X15	Y15	Z15	X16	Y16	Z16	X17	Y17	Z17	X18	Y18	Z18	X19	Y19	Z19	X20	Y20	Z20	X21	Y21	Z21	X22	Y22	Z22	X23	Y23	Z23	X24	Y24	Z24	X25	Y25	Z25	X26	Y26	Z26	X27	Y27	Z27	X28	Y28	Z28	X29	Y29	Z29	X30	Y30	Z30	X31	Y31	Z31	X32	Y32	Z32	X33	Y33	Z33	

89	26.587714285714	882.835826895157	953.767210271345	330.530613465717	668.581820383675	990.152279809296	487.570156529367	826.906525750992	1432.439035043847	321.038669846326	930.058645880104	1359.982625453109	481.154527340472	839.330951219863	1423.588222988457	657.201669094286	823.869882655979	1487.684119067089	473.763109303670	899.548015189845	935.295915316439	604.856966345552	966.875229449614	750.441545533701	571.629033575597	904.492023772206	632.175060945807	634.368235023377	987.742830348421	589.785213305152	553.578654682472	1001.179206569302	499.199143629088	561.028420310959	915.884636513275	729.761249570396	354.885906681809	820.014074053249	618.982511591486	294.443402304141	900.042352227876	531.705644236850	352.918640331156	889.337583706972	447.655146339647	353.540933989286	824.672124519806	388.424597768769	349.620468076329	688.903435421558	333.897190592746	299.677159217512	681.774346035859	209.087418432973	364.103061938897	975.877599206817	408.051942811642	570.078530977217	908.709631745186	301.974422321863	631.928158144445	955.948631401284	208.601071616585	571.805592340707	826.857301823257	42.203721606206	540.338041730359	996.732191193586	98.873454428036	580.119741137492	908.583621536832	36.294490708683	617.615023636512	1115.959677981498	49.197140525409	610.671813285175	496.130100047801	120.540645198798	400.815965554775	562.999928319496	85.497559540892	323.662742307901	662.284773519647	114.490005895084	347.245729212476	760.366171133638	33.267981583687	325.578579340201	825.580544304688	1085.675455179830	180.925943529434	1044.496131620454	945.716562884321	184.055251926839	783.836604164874	1076.750214615328	761.712235537933	876.145295107847	832.137921272170	752.076714320331	
90	26.600642857143	882.164496339194	954.593213640313	332.254039985443	669.030276568470	990.946210575301	491.012666354081	825.564690747876	1433.815453991251	324.402685602846	930.391051131848	1360.736851311849	483.173823488629	841.548311135077	1423.687542824226	660.291101361599	824.071975608628	1488.453402087968	477.443827691436	900.810839852437	936.294628949835	606.408710883892	966.251463000501	749.619007115739	574.702258154853	902.292154977712	632.246318775845	636.587927377249	985.211032567741	589.161160281208	555.862536408085	997.632905490929	498.556691958165	563.097625664821	921.231082207473	732.591212583738	356.544335794314	829.683107814391	619.159674679528	295.430291801594	913.058135443125	533.729106814534	353.023533230863	903.560993519713	448.289364976175	352.778912946879	836.649329082106	389.247630467054	349.415392019803	698.417897490721	340.152913269912	300.362749001774	687.234384286048	215.353812890815	364.142220000027	971.723659995178	407.562323495988	571.793974146992	903.822465368947	301.699409792549	633.212460601679	950.458539896245	208.259731196094	572.675689791690	820.552506098931	42.197750358122	540.546129253971	990.473430170793	98.939448141981	580.504391202169	902.246144650199	36.304996370890	617.907952562882	1109.638330047050	49.193976282347	610.937799665987	498.044659912357	135.887516305232	401.678646143207	562.574238681660	97.088413040876	324.133619058321	663.682062212738	120.334308480418	347.019183036311	756.198597853697	32.900748431505	324.879081334478	820.338253913239	1086.300144027604	185.834066288497	1032.469420900629	935.240301403407	187.164148266838	794.283859882425	1075.495764919376	765.456338861461	893.853911069502	833.889737101066	754.571877611624	
91	26.613571428571	881.388120514124	955.366244376270	333.950813327600	669.284639692180	991.802392490474	494.318736899856	824.131221008155	1435.073589075431	327.537655301497	930.651745533770	1361.443115734956	484.961506360882	843.747783709499	1423.798612372255	663.124369898840	824.258959759723	1489.199087508549	480.861381230197	901.798800432959	937.255085899069	607.929655509118	965.255399073515	748.750446537987	577.809632795656	899.673889834864	632.268144107869	638.783639664477	982.302540773676	588.513624098806	558.158609204575	993.684334333447	497.916858533228	565.169430359805	926.315603838267	735.742325605997	358.093354692888	839.089525679711	619.874921384354	296.164320297801	925.662757570290	536.424071937996	352.920289796559	917.505786345618	449.720754515265	351.907647148287	848.722858942115	390.726754928594	349.026626923233	708.307328168189	346.650077914939	301.038236919417	693.545860851412	221.935043065066	364.216243614637	967.231470767833	407.093862479579	573.503510338863	898.658928514772	301.408089498679	634.464827242241	944.803894665556	207.938644186085	573.544658981621	814.218944713643	42.199770622096	540.754280658218	984.187811102728	98.945041703980	580.886275271537	895.875256328162	36.292336947941	618.170404750587	1103.296388590130	49.085245833665	611.220133245075	501.461063672789	150.804633983917	402.903790486285	563.566093812790	108.875269513072	324.738061580471	666.248666275895	126.672819413005	346.830765711815	753.455309178957	33.000873213620	323.693709580165	814.946212472228	1086.784549828481	190.695557686553	1019.389149028179	924.583859355489	190.275849163841	805.028432644406	1074.507206215341	769.099896502439	911.976117344801	836.217850014020	756.752206624695	
92	26.626500000000	880.524643244180	956.096582185747	335.634811638750	669.357957267805	992.696375743353	497.472232477856	822.661442817205	1436.194928975902	330.420683529790	930.851579230980	1362.095736859818	486.530048386046	845.901945352747	1423.945691898917	665.699135779286	824.452975421539	1489.924074192721	483.978790987422	902.529398329104	938.152085256579	609.444499772261	963.955040708619	747.888364757351	580.810132541136	896.767857796198	632.263405933261	640.878598160238	979.115030472246	587.859788743972	560.361315569601	989.433989777843	497.285884121439	567.138861491528	931.023519384189	739.191656551793	359.540446409153	848.026755547104	621.154122957353	296.686687869531	937.616009683804	539.783517435669	352.647489463468	930.950214264719	451.954504491363	350.941357976805	860.698533866103	392.850180312857	348.466397709711	718.398129180242	353.158833493915	301.698567822532	700.708904319770	228.527551907631	364.289273121963	962.492867275541	406.648139839265	575.124139505231	893.311114021661	301.119552434325	635.631066240646	939.033521498926	207.635279930913	574.363338622667	807.847400233669	42.215914763272	540.958608866710	977.870169886041	98.892102685290	581.244024259712	889.465694296853	36.266754272228	618.402705636115	1096.929249913782	48.873489183630	611.504956942964	506.449194437592	164.526319750665	404.430680668011	566.173867751418	120.235898478765	325.422382451961	670.151957107607	133.189413645126	346.616309769604	752.591780301044	33.661071387887	321.970162551419	809.434471031011	1087.120896328712	195.480780327427	1005.256094763031	913.885168622734	193.389623517382	815.989383052533	1073.814969404823	772.580672358854	930.418569150611	839.168656798483	758.583805051758	
